<svg id="visual" viewBox="0 0 960 340" width="960" height="340" xmlns="http://www.w3.org/2000/svg" xmlns:xlink="http://www.w3.org/1999/xlink" version="1.1"><rect x="0" y="0" width="960" height="340" fill="#202731"></rect><path d="M0 98L22.8 104.7C45.7 111.3 91.3 124.7 137 131.7C182.7 138.7 228.3 139.3 274 132.5C319.7 125.7 365.3 111.3 411.2 103C457 94.7 503 92.3 548.8 93.5C594.7 94.7 640.3 99.3 686 107C731.7 114.7 777.3 125.3 823 130.7C868.7 136 914.3 136 937.2 136L960 136L960 0L937.2 0C914.3 0 868.7 0 823 0C777.3 0 731.7 0 686 0C640.3 0 594.7 0 548.8 0C503 0 457 0 411.2 0C365.3 0 319.7 0 274 0C228.3 0 182.7 0 137 0C91.3 0 45.7 0 22.8 0L0 0Z" fill="#fa7268"></path><path d="M0 77L22.8 76.7C45.7 76.3 91.3 75.7 137 79.3C182.7 83 228.3 91 274 95.3C319.7 99.7 365.3 100.3 411.2 95.7C457 91 503 81 548.8 81.8C594.7 82.7 640.3 94.3 686 100.5C731.7 106.7 777.3 107.3 823 103.7C868.7 100 914.3 92 937.2 88L960 84L960 0L937.2 0C914.3 0 868.7 0 823 0C777.3 0 731.7 0 686 0C640.3 0 594.7 0 548.8 0C503 0 457 0 411.2 0C365.3 0 319.7 0 274 0C228.3 0 182.7 0 137 0C91.3 0 45.7 0 22.8 0L0 0Z" fill="#ef5f67"></path><path d="M0 80L22.8 78.2C45.7 76.3 91.3 72.7 137 73.3C182.7 74 228.3 79 274 78.5C319.7 78 365.3 72 411.2 70.3C457 68.7 503 71.3 548.8 70.5C594.7 69.7 640.3 65.3 686 66.2C731.7 67 777.3 73 823 77.8C868.7 82.7 914.3 86.3 937.2 88.2L960 90L960 0L937.2 0C914.3 0 868.7 0 823 0C777.3 0 731.7 0 686 0C640.3 0 594.7 0 548.8 0C503 0 457 0 411.2 0C365.3 0 319.7 0 274 0C228.3 0 182.7 0 137 0C91.3 0 45.7 0 22.8 0L0 0Z" fill="#e34c67"></path><path d="M0 36L22.8 36.5C45.7 37 91.3 38 137 38.5C182.7 39 228.3 39 274 41.2C319.7 43.3 365.3 47.7 411.2 51.5C457 55.3 503 58.7 548.8 55.7C594.7 52.7 640.3 43.3 686 40.2C731.7 37 777.3 40 823 40C868.7 40 914.3 37 937.2 35.5L960 34L960 0L937.2 0C914.3 0 868.7 0 823 0C777.3 0 731.7 0 686 0C640.3 0 594.7 0 548.8 0C503 0 457 0 411.2 0C365.3 0 319.7 0 274 0C228.3 0 182.7 0 137 0C91.3 0 45.7 0 22.8 0L0 0Z" fill="#d53867"></path><path d="M0 31L22.8 30.3C45.7 29.7 91.3 28.3 137 29.2C182.7 30 228.3 33 274 34.7C319.7 36.3 365.3 36.7 411.2 37C457 37.3 503 37.7 548.8 34.3C594.7 31 640.3 24 686 21.3C731.7 18.7 777.3 20.3 823 20.8C868.7 21.3 914.3 20.7 937.2 20.3L960 20L960 0L937.2 0C914.3 0 868.7 0 823 0C777.3 0 731.7 0 686 0C640.3 0 594.7 0 548.8 0C503 0 457 0 411.2 0C365.3 0 319.7 0 274 0C228.3 0 182.7 0 137 0C91.3 0 45.7 0 22.8 0L0 0Z" fill="#c62368"></path></svg>