<svg id="visual" viewBox="0 0 960 540" width="960" height="540" xmlns="http://www.w3.org/2000/svg" xmlns:xlink="http://www.w3.org/1999/xlink" version="1.1"><rect x="0" y="0" width="960" height="540" fill="#202731"></rect><path d="M0 196L22.8 190.3C45.7 184.7 91.3 173.3 137 169.2C182.7 165 228.3 168 274 174.3C319.7 180.7 365.3 190.3 411.2 197.8C457 205.3 503 210.7 548.8 202.8C594.7 195 640.3 174 686 173.3C731.7 172.7 777.3 192.3 823 190.8C868.7 189.3 914.3 166.7 937.2 155.3L960 144L960 0L937.2 0C914.3 0 868.7 0 823 0C777.3 0 731.7 0 686 0C640.3 0 594.7 0 548.8 0C503 0 457 0 411.2 0C365.3 0 319.7 0 274 0C228.3 0 182.7 0 137 0C91.3 0 45.7 0 22.8 0L0 0Z" fill="#fa7268"></path><path d="M0 163L22.8 157.3C45.7 151.7 91.3 140.3 137 143.2C182.7 146 228.3 163 274 170C319.7 177 365.3 174 411.2 174C457 174 503 177 548.8 167C594.7 157 640.3 134 686 126.3C731.7 118.7 777.3 126.3 823 127C868.7 127.7 914.3 121.3 937.2 118.2L960 115L960 0L937.2 0C914.3 0 868.7 0 823 0C777.3 0 731.7 0 686 0C640.3 0 594.7 0 548.8 0C503 0 457 0 411.2 0C365.3 0 319.7 0 274 0C228.3 0 182.7 0 137 0C91.3 0 45.7 0 22.8 0L0 0Z" fill="#ef5f67"></path><path d="M0 137L22.8 128.3C45.7 119.7 91.3 102.3 137 103.2C182.7 104 228.3 123 274 125.3C319.7 127.7 365.3 113.3 411.2 104.7C457 96 503 93 548.8 95C594.7 97 640.3 104 686 104.2C731.7 104.3 777.3 97.7 823 99.5C868.7 101.3 914.3 111.7 937.2 116.8L960 122L960 0L937.2 0C914.3 0 868.7 0 823 0C777.3 0 731.7 0 686 0C640.3 0 594.7 0 548.8 0C503 0 457 0 411.2 0C365.3 0 319.7 0 274 0C228.3 0 182.7 0 137 0C91.3 0 45.7 0 22.8 0L0 0Z" fill="#e34c67"></path><path d="M0 73L22.8 69.3C45.7 65.7 91.3 58.3 137 62.2C182.7 66 228.3 81 274 81.3C319.7 81.7 365.3 67.3 411.2 63.8C457 60.3 503 67.7 548.8 68.8C594.7 70 640.3 65 686 69.8C731.7 74.7 777.3 89.3 823 94C868.7 98.7 914.3 93.3 937.2 90.7L960 88L960 0L937.2 0C914.3 0 868.7 0 823 0C777.3 0 731.7 0 686 0C640.3 0 594.7 0 548.8 0C503 0 457 0 411.2 0C365.3 0 319.7 0 274 0C228.3 0 182.7 0 137 0C91.3 0 45.7 0 22.8 0L0 0Z" fill="#d53867"></path><path d="M0 56L22.8 54.2C45.7 52.3 91.3 48.7 137 43.3C182.7 38 228.3 31 274 30C319.7 29 365.3 34 411.2 35.8C457 37.7 503 36.3 548.8 38.2C594.7 40 640.3 45 686 43.2C731.7 41.3 777.3 32.7 823 28.2C868.7 23.7 914.3 23.3 937.2 23.2L960 23L960 0L937.2 0C914.3 0 868.7 0 823 0C777.3 0 731.7 0 686 0C640.3 0 594.7 0 548.8 0C503 0 457 0 411.2 0C365.3 0 319.7 0 274 0C228.3 0 182.7 0 137 0C91.3 0 45.7 0 22.8 0L0 0Z" fill="#c62368"></path></svg>